<svg width="149" height="117" viewBox="0 0 149 117" fill="none" xmlns="http://www.w3.org/2000/svg">
<path fill-rule="evenodd" clip-rule="evenodd" d="M73.3626 113.886C65.5781 112.495 57.1248 101.852 49.2601 101.033C36.8765 99.7438 20.484 118.464 14.1136 107.719C7.1742 96.0131 25.5882 84.2864 22.7356 70.967C19.939 57.9088 2.08053 56.7598 0.363133 43.5147C-1.05832 32.5521 13.1365 25.1002 22.7356 19.694C31.3383 14.849 41.6654 14.9028 51.5257 14.7001C59.0142 14.5461 68.8501 16.2245 76.1849 14.7001C86.1373 12.6316 89.87 4.49318 100.032 4.61849C109.65 4.73708 124.381 9.62203 124.502 19.2836C124.68 33.5204 112.337 42.8867 117.47 56.1584C123.779 72.4753 138.123 61.9607 146.862 77.1053C152.479 86.8403 139.493 99.1612 130.824 106.287C122.392 113.218 110.735 114.25 99.9328 115.679C91.0203 116.858 82.213 115.469 73.3626 113.886Z" fill="#E2F7ED"/>
<path d="M74.5 87C92.4861 87 107.067 83.8647 107.067 79.997C107.067 76.1294 92.4861 72.994 74.5 72.994C56.514 72.994 41.9334 76.1294 41.9334 79.997C41.9334 83.8647 56.514 87 74.5 87Z" fill="#0FBB6B"/>
<path d="M107.067 79.997C107.067 76.1294 92.4861 72.994 74.5 72.994C71.5079 72.994 68.6111 73.0812 65.8589 73.2438L71.9548 82.2119C72.1249 82.4622 72.3235 82.6765 72.5413 82.8569L76.6685 86.9841C93.6433 86.7441 107.067 83.708 107.067 79.997Z" fill="url(#paint0_linear_111_2)"/>
<path d="M110.194 35.6942C110.194 15.9809 94.2135 0 74.5002 0C54.8726 0 39.0044 15.7015 38.8075 35.3281C38.6589 50.1514 47.5478 62.9145 60.3009 68.4499C62.435 69.3762 64.2605 70.8924 65.5684 72.8165L71.9548 82.2119C73.1761 84.0084 75.8238 84.0084 77.045 82.2119L83.4313 72.8166C84.7351 70.8985 86.5511 69.3806 88.6791 68.4586C101.338 62.9732 110.194 50.3689 110.194 35.6942Z" fill="url(#paint1_linear_111_2)"/>
<path d="M74.5 81.7807C74.2933 81.7807 73.7747 81.7253 73.4258 81.2121L67.0395 71.8165C65.5377 69.607 63.4524 67.8786 61.0092 66.8184C48.4655 61.3737 40.4491 49.0201 40.5862 35.3459C40.6766 26.3259 44.2395 17.8816 50.6185 11.5683C56.9968 5.25565 65.479 1.77872 74.5 1.77872C93.2011 1.77872 108.416 16.9933 108.416 35.6944C108.416 49.2249 100.391 61.445 87.9721 66.8266C85.5429 67.8793 83.4641 69.6048 81.9605 71.8168L75.5742 81.2123C75.2254 81.7252 74.7068 81.7807 74.5 81.7807Z" fill="url(#paint2_linear_111_2)"/>
<path d="M74.5 58.1314C86.8917 58.1314 96.9372 48.0859 96.9372 35.6942C96.9372 23.3025 86.8917 13.2571 74.5 13.2571C62.1083 13.2571 52.0629 23.3025 52.0629 35.6942C52.0629 48.0859 62.1083 58.1314 74.5 58.1314Z" fill="url(#paint3_linear_111_2)"/>
<path d="M109.078 44.5812L87.7605 23.2641C84.4443 19.7278 79.7306 17.5177 74.5 17.5177C64.4614 17.5177 56.3235 25.6556 56.3235 35.6942C56.3235 40.9248 58.5336 45.6385 62.0699 48.9547L84.5357 71.4205C85.6901 70.158 87.0981 69.1435 88.6791 68.4586C98.6908 64.12 106.323 55.3281 109.078 44.5812Z" fill="url(#paint4_linear_111_2)"/>
<path d="M74.5 53.8707C84.5386 53.8707 92.6765 45.7328 92.6765 35.6942C92.6765 25.6556 84.5386 17.5177 74.5 17.5177C64.4614 17.5177 56.3235 25.6556 56.3235 35.6942C56.3235 45.7328 64.4614 53.8707 74.5 53.8707Z" fill="url(#paint5_linear_111_2)"/>
<defs>
<linearGradient id="paint0_linear_111_2" x1="92.0106" y1="85.0234" x2="14.1098" y2="42.0263" gradientUnits="userSpaceOnUse">
<stop stop-color="#FFDA45" stop-opacity="0"/>
<stop offset="1" stop-color="#B53759"/>
</linearGradient>
<linearGradient id="paint1_linear_111_2" x1="29.5945" y1="19.6637" x2="121.153" y2="156.22" gradientUnits="userSpaceOnUse">
<stop stop-color="#F58229"/>
<stop offset="1" stop-color="#F54A48"/>
</linearGradient>
<linearGradient id="paint2_linear_111_2" x1="57.5479" y1="38.1455" x2="24.0402" y2="-12.2118" gradientUnits="userSpaceOnUse">
<stop stop-color="#FF7044" stop-opacity="0"/>
<stop offset="1" stop-color="#FFA425"/>
</linearGradient>
<linearGradient id="paint3_linear_111_2" x1="118.855" y1="93.069" x2="6.37633" y2="-50.2547" gradientUnits="userSpaceOnUse">
<stop stop-color="#FF7044"/>
<stop offset="1" stop-color="#F92814"/>
</linearGradient>
<linearGradient id="paint4_linear_111_2" x1="116.715" y1="89.442" x2="75.4343" y2="35.6952" gradientUnits="userSpaceOnUse">
<stop stop-color="#F54A48" stop-opacity="0"/>
<stop offset="1" stop-color="#F54A48"/>
</linearGradient>
<linearGradient id="paint5_linear_111_2" x1="70.0503" y1="28.9086" x2="80.7913" y2="45.2884" gradientUnits="userSpaceOnUse">
<stop stop-color="#F9F7FC"/>
<stop offset="1" stop-color="#F0DDFC"/>
</linearGradient>
</defs>
</svg>
